# xmcd
#
# Track frame offsets: 
#        150
#        17608
#        37272
#        53862
#        69924
#        85471
#        103439
#        127088
#        146021
#        161460
#        179923
#        197934
#
# Disc length: 2877 seconds
#
# Revision: 1
# Processed by: cddbd v1.5.2PL0 Copyright (c) Steve Scherf et al.
# Submitted via: ExactAudioCopy v1.3
#
DISCID=ba0b3b0c
DTITLE=Jeff Steinberg - Big Band Romance - Romantic Standards Performe
DTITLE=d by a Big Band Orchestra
DYEAR=2003
DGENRE=Jazz
TTITLE0=Londonderry Air
TTITLE1=Moonglow
TTITLE2=In a Sentimental Mood
TTITLE3=Shine On Harvest Moon
TTITLE4=Fools Rush In
TTITLE5=Moonlight in Vermont
TTITLE6=I Got It Bad and That Ain't Cool
TTITLE7=Beautiful Dreamer
TTITLE8=As Time Goes By
TTITLE9=Serenade in Blue
TTITLE10=Jeanie with the Light Brown Hair
TTITLE11=Sophisticated Lady
EXTD=YEAR: 2003
EXTT0=
EXTT1=
EXTT2=
EXTT3=
EXTT4=
EXTT5=
EXTT6=
EXTT7=
EXTT8=
EXTT9=
EXTT10=
EXTT11=
PLAYORDER=
